<?xml version="1.0" encoding="utf-8"?>
<!-- Generator: Adobe Illustrator 16.0.0, SVG Export Plug-In . SVG Version: 6.00 Build 0)  -->
<!DOCTYPE svg PUBLIC "-//W3C//DTD SVG 1.1//EN" "http://www.w3.org/Graphics/SVG/1.1/DTD/svg11.dtd">
<svg version="1.1" id="Layer_1" xmlns="http://www.w3.org/2000/svg" xmlns:xlink="http://www.w3.org/1999/xlink" x="0px" y="0px"
	 width="866px" height="309px" viewBox="0 0 866 309" enable-background="new 0 0 866 309" xml:space="preserve">
<rect opacity="0.2" fill="#FFFFFF" stroke="#000000" enable-background="new    " width="865" height="308"/>
<linearGradient id="SVGID_1_" gradientUnits="userSpaceOnUse" x1="433.75" y1="179" x2="433.75" y2="3" gradientTransform="matrix(1 0 0 -1 0 310)">
	<stop  offset="0" style="stop-color:#55ACEE"/>
	<stop  offset="1" style="stop-color:#4070FF;stop-opacity:0"/>
</linearGradient>
<path fill="url(#SVGID_1_)" fill-opacity="0.4" d="M79,252c-34.333-5.167-36.7,0.1-77.5,12.5V309H866V134.5L852,158l-18.5,23.5
	l-33.5,37L774,240l-27.5,17l-20.5,8.5l-20,3l-15.5-1.5l-16-7.5l-11-12l-10-21l-5.5-23l-3-17l-4.5-10.5l-9-21.5L625,146l-7-8.5
	l-16.5-8.5H587l-23,6.5L541.5,146l-30,17.5l-63,38.5L383,232.5l-60,18l-61.5,13L214,268l-44-2L79,252z"/>
<line opacity="0.2" fill="none" stroke="#000000" enable-background="new    " x1="1.248" y1="234" x2="866.252" y2="234"/>
<line opacity="0.2" fill="none" stroke="#000000" enable-background="new    " x1="1.248" y1="159" x2="866.252" y2="159"/>
<line opacity="0.2" fill="none" stroke="#000000" enable-background="new    " x1="1.248" y1="83" x2="866.252" y2="83"/>
<image overflow="visible" width="868" height="145" xlink:href="../../Downloads/Vector 5.png"  transform="matrix(0.9999 0 0 0.9999 0 129)">
</image>
</svg>
