<svg width="138" height="56" viewBox="0 0 138 56" fill="none" xmlns="http://www.w3.org/2000/svg">
<g clip-path="url(#clip0)">
<path d="M33.2796 23.2817L23.3286 11.3592H32.8572V6.24292H16.5225V10.6082L25.9102 22.5307H16.3347V27.647H33.2796V23.2817Z" fill="#1652F0"/>
<path d="M40.2265 27.9286C38.6306 27.9286 37.4102 27.4592 36.5653 26.4735C35.7204 25.4877 35.298 24.0796 35.298 22.202V11.7816H41.0245V20.8877C41.0245 21.5918 41.1653 22.1551 41.4939 22.5306C41.8225 22.9061 42.2449 23.0939 42.7612 23.0939C43.1837 23.0939 43.6531 23 44.1225 22.8122C44.5919 22.6245 45.0612 22.1551 45.4837 21.4979V11.7816H51.2102V21.3102C51.2102 21.8735 51.3041 22.249 51.4449 22.4367C51.5857 22.6245 51.8674 22.7653 52.2898 22.8122V27.6469C51.3041 27.8347 50.5061 27.9286 49.8959 27.9286C47.9714 27.9286 46.8449 27.1775 46.5163 25.7224L46.3755 25.1592C45.6245 26.1449 44.7327 26.849 43.747 27.2714C42.7612 27.6939 41.5878 27.9286 40.2265 27.9286Z" fill="#1652F0"/>
<path d="M65.3858 16.6633C64.2592 16.6633 63.2735 16.8041 62.3817 17.0388C61.4898 17.2735 60.7858 17.6959 60.3633 18.2592V27.6469H54.6368V11.7816H59.8939V14.7857C60.4572 13.7061 61.1613 12.9082 62.0062 12.3449C62.8511 11.7816 63.7429 11.5 64.6817 11.5C65.0572 11.5 65.2919 11.5 65.3858 11.5469V16.6633Z" fill="#1652F0"/>
<path d="M7.41633 26.802H12.7673L20.1837 48.1591H14.2224L12.9082 43.9816H7.27551L6.00816 48.1591H0L7.41633 26.802ZM12.0163 40.0857L10.1388 33.4673L8.16735 40.0857H12.0163Z" fill="#1652F0"/>
<path d="M20.2306 40.2265C20.2306 39.147 20.4183 38.1143 20.7939 37.1286C21.1694 36.1429 21.7326 35.251 22.4837 34.5C23.2347 33.749 24.1265 33.1388 25.2061 32.7163C26.2857 32.247 27.553 32.0592 28.9612 32.0592C30.8857 32.0592 32.4816 32.4817 33.7959 33.2796C35.1102 34.0776 36.049 35.1102 36.7061 36.3776L31.0734 38.0204C30.5102 37.2225 29.8061 36.847 28.8673 36.847C28.0694 36.847 27.4122 37.1286 26.8959 37.7388C26.3326 38.349 26.0979 39.147 26.0979 40.2735C26.0979 41.3531 26.3796 42.198 26.8959 42.8082C27.4592 43.4184 28.1163 43.7 28.8673 43.7C29.8061 43.7 30.5102 43.3245 31.0734 42.5265L36.6592 44.2163C36.002 45.4837 35.0632 46.5163 33.749 47.3143C32.4347 48.1123 30.8388 48.5347 28.9143 48.5347C27.5061 48.5347 26.2857 48.3 25.1592 47.8776C24.0796 47.4082 23.1877 46.8449 22.4367 46.0939C21.6857 45.3429 21.1694 44.451 20.7469 43.4653C20.4183 42.3857 20.2306 41.3531 20.2306 40.2265Z" fill="#1652F0"/>
<path d="M43.1367 48.4408C42.3388 48.4408 41.6347 48.3 40.9306 48.0653C40.2265 47.7837 39.6633 47.4551 39.1469 46.9857C38.6776 46.5164 38.2551 46 37.9735 45.3898C37.6918 44.7796 37.551 44.0755 37.551 43.3715C37.551 42.5735 37.7388 41.8225 38.0674 41.1653C38.3959 40.5082 38.8653 39.9449 39.4755 39.4286C40.0857 38.9592 40.7898 38.5837 41.6347 38.3021C42.4796 38.0204 43.3714 37.9266 44.4041 37.9266C45.6714 37.9266 46.751 38.1143 47.5959 38.5368V38.0674C47.5959 37.3164 47.3612 36.7531 46.9388 36.4245C46.5163 36.049 45.8122 35.8613 44.8265 35.8613C43.9347 35.8613 43.0898 36.0021 42.3388 36.2837C41.5878 36.5653 40.7898 36.9878 39.9449 37.551L38.302 33.9837C40.3674 32.6225 42.7612 31.9653 45.4367 31.9653C47.9714 31.9653 49.8959 32.5286 51.2571 33.6551C52.6184 34.7817 53.3225 36.4715 53.3225 38.7245V41.7755C53.3225 42.3388 53.4163 42.7143 53.5571 42.9021C53.698 43.0898 53.9796 43.2306 54.402 43.2776V48.1123C53.9327 48.2062 53.5102 48.3 53.0878 48.347C52.6653 48.3939 52.2898 48.4408 52.0082 48.4408C50.9755 48.4408 50.2245 48.2531 49.6612 47.8776C49.098 47.5021 48.7694 46.9388 48.6286 46.2347L48.4878 45.6715C47.7837 46.5633 46.9857 47.2674 46.0469 47.7368C45.1551 48.2061 44.1694 48.4408 43.1367 48.4408ZM44.8265 44.3572C45.1551 44.3572 45.5306 44.3102 45.8592 44.1694C46.1878 44.0286 46.5633 43.9347 46.8449 43.747C47.0796 43.6061 47.2674 43.4184 47.4082 43.2306C47.549 43.0429 47.5959 42.8551 47.5959 42.6204V41.447C47.2674 41.3062 46.8918 41.2123 46.4694 41.1653C46.0469 41.0715 45.7184 41.0245 45.3898 41.0245C44.6857 41.0245 44.1225 41.2123 43.6531 41.5408C43.1837 41.8694 42.949 42.2919 42.949 42.8551C42.949 43.2776 43.1367 43.6531 43.4653 43.9347C43.8408 44.2164 44.3102 44.3572 44.8265 44.3572Z" fill="#1652F0"/>
<path d="M74.1633 43.3244V48.1591C73.1775 48.3469 72.3796 48.4408 71.7694 48.4408C69.8449 48.4408 68.7184 47.6897 68.3898 46.2346L68.2959 45.6714C67.7326 46.6101 67.0286 47.3142 66.0898 47.7836C65.151 48.2061 64.1653 48.4408 63.1326 48.4408C62.053 48.4408 61.0673 48.253 60.1286 47.8306C59.2367 47.4081 58.4388 46.8448 57.7816 46.1408C57.1245 45.3897 56.6082 44.5448 56.2326 43.5122C55.8571 42.4795 55.6694 41.3999 55.6694 40.1795C55.6694 39.0061 55.8571 37.9265 56.1857 36.9408C56.5143 35.955 56.9837 35.0632 57.5939 34.3591C58.2041 33.6081 58.9551 33.0448 59.8 32.6224C60.6449 32.1999 61.5837 32.0122 62.6163 32.0122C63.649 32.0122 64.5877 32.2469 65.4326 32.7163C66.2775 33.1857 66.9347 33.8428 67.4041 34.6877V26.1918V12.8612C67.4041 11.4999 68.5306 10.3734 69.8918 10.3734H73.1306V41.8693C73.1306 42.3857 73.2245 42.8081 73.3653 42.9959C73.4592 43.1836 73.7408 43.3244 74.1633 43.3244Z" fill="#1652F0"/>
<path d="M84.3021 48.4408C82.9408 48.4408 81.6735 48.2061 80.5939 47.7836C79.5143 47.3612 78.6225 46.751 77.8714 46C77.1204 45.2489 76.6041 44.404 76.1816 43.4653C75.8061 42.4796 75.6184 41.4938 75.6184 40.4142C75.6184 39.2877 75.8061 38.2081 76.1816 37.1755C76.5572 36.1428 77.1204 35.251 77.8245 34.5C78.5755 33.7489 79.4674 33.1387 80.5469 32.6694C81.6265 32.2 82.8469 32.0122 84.3021 32.0122C85.7102 32.0122 86.9306 32.2469 88.0572 32.6694C89.1367 33.1387 90.0286 33.702 90.7796 34.453C91.5306 35.204 92.0469 36.0959 92.4225 37.0816C92.798 38.0673 92.9857 39.1 92.9857 40.1796C92.9857 40.4612 92.9857 40.7898 92.9388 41.1183C92.8918 41.4469 92.8918 41.6816 92.8449 41.9632H81.7204C81.7674 42.8081 82.0959 43.4183 82.6592 43.7938C83.2225 44.1694 83.8327 44.3571 84.4898 44.3571C85.1 44.3571 85.7102 44.2163 86.2735 43.9347C86.8367 43.653 87.2123 43.2775 87.3531 42.7612L92.1878 44.1224C91.5306 45.3898 90.5449 46.4224 89.2306 47.2204C87.8694 48.0653 86.2265 48.4408 84.3021 48.4408ZM86.8367 38.5836C86.7429 37.8326 86.4612 37.2224 85.9918 36.8C85.5225 36.3775 84.9592 36.1428 84.2082 36.1428C83.5041 36.1428 82.8939 36.3775 82.4245 36.8C81.9551 37.2224 81.6735 37.8326 81.5796 38.5836H86.8367Z" fill="#1652F0"/>
<path d="M120.351 48.1592H114.624V39.2408C114.624 38.4429 114.484 37.8796 114.155 37.551C113.827 37.2225 113.451 37.0347 113.029 37.0347C112.559 37.0347 112.09 37.2225 111.573 37.6449C111.057 38.0674 110.682 38.6306 110.447 39.2878V48.1592H104.72V39.2408C104.72 38.4429 104.58 37.8796 104.251 37.551C103.922 37.2225 103.547 37.0347 103.124 37.0347C102.655 37.0347 102.186 37.2225 101.669 37.6449C101.153 38.0674 100.778 38.6306 100.543 39.2878V48.1592H94.8163V32.3408H99.9796V34.6878C100.543 33.8429 101.294 33.1857 102.28 32.7163C103.265 32.247 104.439 32.0592 105.753 32.0592C106.41 32.0592 106.973 32.1531 107.443 32.2939C107.912 32.4347 108.335 32.6694 108.71 32.9041C109.039 33.1857 109.32 33.4674 109.555 33.7959C109.743 34.1245 109.931 34.4531 110.071 34.8286C110.635 33.9837 111.386 33.2796 112.371 32.8102C113.357 32.3408 114.437 32.1061 115.704 32.1061C116.737 32.1061 117.582 32.2939 118.192 32.7163C118.802 33.0919 119.271 33.6082 119.6 34.1714C119.929 34.7347 120.116 35.3919 120.21 36.049C120.304 36.7061 120.351 37.3163 120.351 37.8327V48.1592Z" fill="#1652F0"/>
<path d="M122.745 49.7551C123.684 50.0837 124.435 50.2714 125.092 50.2714C126.312 50.2714 126.969 49.5674 127.11 48.1592L121.384 32.3408H127.251L130.255 43.3245L132.696 32.3408H138L132.649 50.0837C132.414 50.8816 132.086 51.5857 131.616 52.1959C131.194 52.8061 130.631 53.3694 130.02 53.8388C129.41 54.3082 128.753 54.6367 128.002 54.8714C127.251 55.1061 126.5 55.2469 125.702 55.2469C125.702 55.2469 125.702 55.2469 125.655 55.2469C124.012 55.2469 122.745 53.8388 122.745 52.2429V49.7551Z" fill="#1652F0"/>
<path d="M70.2673 6.75918C72.1338 6.75918 73.6469 5.24609 73.6469 3.37959C73.6469 1.51309 72.1338 0 70.2673 0C68.4008 0 66.8877 1.51309 66.8877 3.37959C66.8877 5.24609 68.4008 6.75918 70.2673 6.75918Z" fill="#FFCF40"/>
<path d="M64.6816 43.653C65.7143 43.653 66.6061 43.0898 67.4041 42.0102V39.1939C67.1224 38.4898 66.7 37.9265 66.1836 37.5041C65.6673 37.0816 65.0571 36.8469 64.4469 36.8469C64.0245 36.8469 63.649 36.9408 63.2734 37.1286C62.8979 37.3163 62.6163 37.551 62.3816 37.8796C62.1469 38.2081 61.9122 38.5837 61.7714 39.0061C61.6306 39.4286 61.5367 39.8979 61.5367 40.3673C61.5367 41.353 61.8183 42.151 62.3816 42.7612C62.9918 43.3245 63.7428 43.653 64.6816 43.653Z" fill="#FFCF40"/>
</g>
<defs>
<clipPath id="clip0">
<rect width="138" height="55.2" fill="white"/>
</clipPath>
</defs>
</svg>
